<mxfile host="Electron" modified="2023-11-20T14:39:49.973Z" agent="Mozilla/5.0 (Macintosh; Intel Mac OS X 10_15_7) AppleWebKit/537.36 (KHTML, like Gecko) draw.io/22.1.2 Chrome/114.0.5735.289 Electron/25.9.4 Safari/537.36" etag="mIVuJ5bnUzz4UUzp3EuH" version="22.1.2" type="device">
  <diagram name="Page-1" id="dkiBNy_VU2p00hY21MyY">
    <mxGraphModel dx="809" dy="1887" grid="1" gridSize="10" guides="1" tooltips="1" connect="1" arrows="1" fold="1" page="1" pageScale="1" pageWidth="827" pageHeight="1169" math="0" shadow="0">
      <root>
        <mxCell id="0" />
        <mxCell id="1" parent="0" />
        <mxCell id="ET-E_L0radJHumGL9apl-5" value="Trust Boundary" style="html=1;fontColor=#46495D;fontStyle=1;align=left;verticalAlign=top;spacing=0;labelBorderColor=none;fillColor=none;dashed=1;strokeWidth=2;strokeColor=#788AA3;spacingLeft=4;spacingTop=-3;rounded=0;labelBackgroundColor=none;fontSize=11;" parent="1" vertex="1">
          <mxGeometry x="269" y="260" width="290" height="230" as="geometry" />
        </mxCell>
        <mxCell id="ET-E_L0radJHumGL9apl-11" value="" style="edgeStyle=orthogonalEdgeStyle;rounded=0;orthogonalLoop=1;jettySize=auto;html=1;labelBackgroundColor=none;strokeColor=#788AA3;fontColor=default;fontSize=11;" parent="1" source="ET-E_L0radJHumGL9apl-4" target="ET-E_L0radJHumGL9apl-10" edge="1">
          <mxGeometry relative="1" as="geometry" />
        </mxCell>
        <mxCell id="yTmzzn22rcDXvcjyOprt-23" value="F04:???" style="edgeLabel;html=1;align=center;verticalAlign=middle;resizable=0;points=[];" vertex="1" connectable="0" parent="ET-E_L0radJHumGL9apl-11">
          <mxGeometry x="-0.2" relative="1" as="geometry">
            <mxPoint as="offset" />
          </mxGeometry>
        </mxCell>
        <mxCell id="ET-E_L0radJHumGL9apl-4" value="P01:API" style="ellipse;shape=doubleEllipse;whiteSpace=wrap;html=1;aspect=fixed;rounded=0;labelBackgroundColor=none;fillColor=#B2C9AB;strokeColor=#788AA3;fontColor=#46495D;fontSize=11;" parent="1" vertex="1">
          <mxGeometry x="370" y="290" width="80" height="80" as="geometry" />
        </mxCell>
        <mxCell id="ET-E_L0radJHumGL9apl-9" value="" style="edgeStyle=orthogonalEdgeStyle;rounded=0;orthogonalLoop=1;jettySize=auto;html=1;labelBackgroundColor=none;strokeColor=#788AA3;fontColor=default;fontSize=11;" parent="1" source="yTmzzn22rcDXvcjyOprt-6" target="ET-E_L0radJHumGL9apl-7" edge="1">
          <mxGeometry relative="1" as="geometry" />
        </mxCell>
        <mxCell id="yTmzzn22rcDXvcjyOprt-26" value="F06:https" style="edgeLabel;html=1;align=center;verticalAlign=middle;resizable=0;points=[];" vertex="1" connectable="0" parent="ET-E_L0radJHumGL9apl-9">
          <mxGeometry x="0.0222" relative="1" as="geometry">
            <mxPoint as="offset" />
          </mxGeometry>
        </mxCell>
        <mxCell id="ET-E_L0radJHumGL9apl-8" value="" style="edgeStyle=orthogonalEdgeStyle;rounded=0;orthogonalLoop=1;jettySize=auto;html=1;labelBackgroundColor=none;strokeColor=#788AA3;fontColor=default;fontSize=11;" parent="1" source="yTmzzn22rcDXvcjyOprt-4" target="ET-E_L0radJHumGL9apl-4" edge="1">
          <mxGeometry relative="1" as="geometry" />
        </mxCell>
        <mxCell id="yTmzzn22rcDXvcjyOprt-21" value="F:02" style="edgeLabel;html=1;align=center;verticalAlign=middle;resizable=0;points=[];rounded=0;" vertex="1" connectable="0" parent="ET-E_L0radJHumGL9apl-8">
          <mxGeometry relative="1" as="geometry">
            <mxPoint as="offset" />
          </mxGeometry>
        </mxCell>
        <mxCell id="ET-E_L0radJHumGL9apl-6" value="E01:Client" style="rounded=0;whiteSpace=wrap;html=1;labelBackgroundColor=none;fillColor=#B2C9AB;strokeColor=#788AA3;fontColor=#46495D;fontSize=11;" parent="1" vertex="1">
          <mxGeometry x="40" y="300" width="120" height="60" as="geometry" />
        </mxCell>
        <mxCell id="ET-E_L0radJHumGL9apl-7" value="External Resource" style="rounded=0;whiteSpace=wrap;html=1;labelBackgroundColor=none;fillColor=#B2C9AB;strokeColor=#788AA3;fontColor=#46495D;fontSize=11;" parent="1" vertex="1">
          <mxGeometry x="670" y="300" width="120" height="60" as="geometry" />
        </mxCell>
        <mxCell id="ET-E_L0radJHumGL9apl-10" value="S01:Data Store" style="shape=partialRectangle;whiteSpace=wrap;html=1;left=0;right=0;fillColor=none;rounded=0;labelBackgroundColor=none;strokeColor=#788AA3;fontColor=#46495D;fontSize=11;" parent="1" vertex="1">
          <mxGeometry x="350" y="410" width="120" height="50" as="geometry" />
        </mxCell>
        <mxCell id="ET-E_L0radJHumGL9apl-12" style="edgeStyle=orthogonalEdgeStyle;rounded=0;orthogonalLoop=1;jettySize=auto;html=1;exitX=0.5;exitY=1;exitDx=0;exitDy=0;labelBackgroundColor=none;strokeColor=#788AA3;fontColor=default;fontSize=11;" parent="1" source="ET-E_L0radJHumGL9apl-10" target="ET-E_L0radJHumGL9apl-10" edge="1">
          <mxGeometry relative="1" as="geometry" />
        </mxCell>
        <mxCell id="yTmzzn22rcDXvcjyOprt-2" value="A01" style="text;html=1;align=center;verticalAlign=middle;whiteSpace=wrap;overflow=hidden;fontSize=11;fontFamily=Architects Daughter;rounded=0;labelBackgroundColor=none;fillColor=#dae8fc;strokeColor=#6c8ebf;" vertex="1" parent="1">
          <mxGeometry x="430" y="280" width="40" height="20" as="geometry" />
        </mxCell>
        <mxCell id="yTmzzn22rcDXvcjyOprt-3" value="" style="edgeStyle=orthogonalEdgeStyle;rounded=0;orthogonalLoop=1;jettySize=auto;html=1;labelBackgroundColor=none;strokeColor=#788AA3;fontColor=default;fontSize=11;" edge="1" parent="1" source="ET-E_L0radJHumGL9apl-6" target="yTmzzn22rcDXvcjyOprt-4">
          <mxGeometry relative="1" as="geometry">
            <mxPoint x="160" y="330" as="sourcePoint" />
            <mxPoint x="370" y="330" as="targetPoint" />
          </mxGeometry>
        </mxCell>
        <mxCell id="yTmzzn22rcDXvcjyOprt-22" value="F:01" style="edgeLabel;html=1;align=center;verticalAlign=middle;resizable=0;points=[];rounded=0;" vertex="1" connectable="0" parent="yTmzzn22rcDXvcjyOprt-3">
          <mxGeometry x="-0.025" y="1" relative="1" as="geometry">
            <mxPoint as="offset" />
          </mxGeometry>
        </mxCell>
        <mxCell id="yTmzzn22rcDXvcjyOprt-4" value="A01" style="text;html=1;align=center;verticalAlign=middle;whiteSpace=wrap;overflow=hidden;fontSize=11;fontFamily=Architects Daughter;rounded=0;labelBackgroundColor=none;fillColor=#dae8fc;strokeColor=#6c8ebf;" vertex="1" parent="1">
          <mxGeometry x="240" y="320" width="40" height="20" as="geometry" />
        </mxCell>
        <mxCell id="yTmzzn22rcDXvcjyOprt-5" value="" style="edgeStyle=orthogonalEdgeStyle;rounded=0;orthogonalLoop=1;jettySize=auto;html=1;labelBackgroundColor=none;strokeColor=#788AA3;fontColor=default;fontSize=11;" edge="1" parent="1" source="ET-E_L0radJHumGL9apl-4" target="yTmzzn22rcDXvcjyOprt-6">
          <mxGeometry relative="1" as="geometry">
            <mxPoint x="450" y="330" as="sourcePoint" />
            <mxPoint x="670" y="330" as="targetPoint" />
          </mxGeometry>
        </mxCell>
        <mxCell id="yTmzzn22rcDXvcjyOprt-25" value="F05:http" style="edgeLabel;html=1;align=center;verticalAlign=middle;resizable=0;points=[];" vertex="1" connectable="0" parent="yTmzzn22rcDXvcjyOprt-5">
          <mxGeometry x="-0.0444" y="-1" relative="1" as="geometry">
            <mxPoint as="offset" />
          </mxGeometry>
        </mxCell>
        <mxCell id="yTmzzn22rcDXvcjyOprt-6" value="A03" style="text;html=1;align=center;verticalAlign=middle;whiteSpace=wrap;overflow=hidden;fontSize=11;fontFamily=Architects Daughter;rounded=0;labelBackgroundColor=none;fillColor=#dae8fc;strokeColor=#6c8ebf;" vertex="1" parent="1">
          <mxGeometry x="540" y="320" width="40" height="20" as="geometry" />
        </mxCell>
        <mxCell id="yTmzzn22rcDXvcjyOprt-7" value="A01" style="text;html=1;align=center;verticalAlign=middle;whiteSpace=wrap;overflow=hidden;fontSize=11;fontFamily=Architects Daughter;rounded=0;labelBackgroundColor=none;fillColor=#dae8fc;strokeColor=#6c8ebf;" vertex="1" parent="1">
          <mxGeometry x="470" y="410" width="40" height="20" as="geometry" />
        </mxCell>
        <mxCell id="yTmzzn22rcDXvcjyOprt-8" value="A02" style="text;html=1;align=center;verticalAlign=middle;whiteSpace=wrap;overflow=hidden;fontSize=11;fontFamily=Architects Daughter;rounded=0;labelBackgroundColor=none;fillColor=#dae8fc;strokeColor=#6c8ebf;" vertex="1" parent="1">
          <mxGeometry x="470" y="440" width="40" height="20" as="geometry" />
        </mxCell>
        <mxCell id="yTmzzn22rcDXvcjyOprt-15" value="CWE" style="swimlane;fontStyle=0;childLayout=stackLayout;horizontal=1;startSize=30;horizontalStack=0;resizeParent=1;resizeParentMax=0;resizeLast=0;collapsible=1;marginBottom=0;whiteSpace=wrap;html=1;rounded=0;" vertex="1" parent="1">
          <mxGeometry x="120" y="570" width="430" height="300" as="geometry">
            <mxRectangle x="60" y="60" width="60" height="30" as="alternateBounds" />
          </mxGeometry>
        </mxCell>
        <mxCell id="yTmzzn22rcDXvcjyOprt-16" value="1. CWE-639:Authorization Bypass Through User-Controlled Key" style="text;strokeColor=none;fillColor=none;align=left;verticalAlign=middle;spacingLeft=4;spacingRight=4;overflow=hidden;points=[[0,0.5],[1,0.5]];portConstraint=eastwest;rotatable=0;whiteSpace=wrap;html=1;rounded=0;" vertex="1" parent="yTmzzn22rcDXvcjyOprt-15">
          <mxGeometry y="30" width="430" height="30" as="geometry" />
        </mxCell>
        <mxCell id="yTmzzn22rcDXvcjyOprt-17" value="2. CWE-285:Improper Authorisation" style="text;strokeColor=none;fillColor=none;align=left;verticalAlign=middle;spacingLeft=4;spacingRight=4;overflow=hidden;points=[[0,0.5],[1,0.5]];portConstraint=eastwest;rotatable=0;whiteSpace=wrap;html=1;rounded=0;" vertex="1" parent="yTmzzn22rcDXvcjyOprt-15">
          <mxGeometry y="60" width="430" height="30" as="geometry" />
        </mxCell>
        <mxCell id="yTmzzn22rcDXvcjyOprt-18" value="3. CWE-307:Improper Restriction of Excessive Authentication Attempts" style="text;strokeColor=none;fillColor=none;align=left;verticalAlign=middle;spacingLeft=4;spacingRight=4;overflow=hidden;points=[[0,0.5],[1,0.5]];portConstraint=eastwest;rotatable=0;whiteSpace=wrap;html=1;rounded=0;" vertex="1" parent="yTmzzn22rcDXvcjyOprt-15">
          <mxGeometry y="90" width="430" height="30" as="geometry" />
        </mxCell>
        <mxCell id="yTmzzn22rcDXvcjyOprt-38" value="4. CWE-204:Observable Response Discrepancy" style="text;strokeColor=none;fillColor=none;align=left;verticalAlign=middle;spacingLeft=4;spacingRight=4;overflow=hidden;points=[[0,0.5],[1,0.5]];portConstraint=eastwest;rotatable=0;whiteSpace=wrap;html=1;rounded=0;" vertex="1" parent="yTmzzn22rcDXvcjyOprt-15">
          <mxGeometry y="120" width="430" height="30" as="geometry" />
        </mxCell>
        <mxCell id="yTmzzn22rcDXvcjyOprt-48" value="5. CWE-213:Exposure of Sensitive Information Due to Incompatible Policies" style="text;strokeColor=none;fillColor=none;align=left;verticalAlign=middle;spacingLeft=4;spacingRight=4;overflow=hidden;points=[[0,0.5],[1,0.5]];portConstraint=eastwest;rotatable=0;whiteSpace=wrap;html=1;rounded=0;" vertex="1" parent="yTmzzn22rcDXvcjyOprt-15">
          <mxGeometry y="150" width="430" height="30" as="geometry" />
        </mxCell>
        <mxCell id="yTmzzn22rcDXvcjyOprt-49" value="6. CWE-915:Improperly Controlled Modification of Dynamically-Determined Object Attributes" style="text;strokeColor=none;fillColor=none;align=left;verticalAlign=middle;spacingLeft=4;spacingRight=4;overflow=hidden;points=[[0,0.5],[1,0.5]];portConstraint=eastwest;rotatable=0;whiteSpace=wrap;html=1;rounded=0;" vertex="1" parent="yTmzzn22rcDXvcjyOprt-15">
          <mxGeometry y="180" width="430" height="30" as="geometry" />
        </mxCell>
        <mxCell id="yTmzzn22rcDXvcjyOprt-56" value="7. CWE-400:Uncontrolled resource consumption" style="text;strokeColor=none;fillColor=none;align=left;verticalAlign=middle;spacingLeft=4;spacingRight=4;overflow=hidden;points=[[0,0.5],[1,0.5]];portConstraint=eastwest;rotatable=0;whiteSpace=wrap;html=1;rounded=0;" vertex="1" parent="yTmzzn22rcDXvcjyOprt-15">
          <mxGeometry y="210" width="430" height="30" as="geometry" />
        </mxCell>
        <mxCell id="yTmzzn22rcDXvcjyOprt-58" value="8. CWE-770:Allocation of Resources Without Limits or Throttling" style="text;strokeColor=none;fillColor=none;align=left;verticalAlign=middle;spacingLeft=4;spacingRight=4;overflow=hidden;points=[[0,0.5],[1,0.5]];portConstraint=eastwest;rotatable=0;whiteSpace=wrap;html=1;rounded=0;" vertex="1" parent="yTmzzn22rcDXvcjyOprt-15">
          <mxGeometry y="240" width="430" height="30" as="geometry" />
        </mxCell>
        <mxCell id="yTmzzn22rcDXvcjyOprt-62" value="9. CWE-799:Improper Control of Interaction Frequency" style="text;strokeColor=none;fillColor=none;align=left;verticalAlign=middle;spacingLeft=4;spacingRight=4;overflow=hidden;points=[[0,0.5],[1,0.5]];portConstraint=eastwest;rotatable=0;whiteSpace=wrap;html=1;rounded=0;" vertex="1" parent="yTmzzn22rcDXvcjyOprt-15">
          <mxGeometry y="270" width="430" height="30" as="geometry" />
        </mxCell>
        <mxCell id="yTmzzn22rcDXvcjyOprt-27" value="1" style="ellipse;whiteSpace=wrap;html=1;aspect=fixed;fillColor=#f8cecc;strokeColor=#b85450;" vertex="1" parent="1">
          <mxGeometry x="310" y="70" width="20" height="20" as="geometry" />
        </mxCell>
        <mxCell id="yTmzzn22rcDXvcjyOprt-30" value="2" style="ellipse;whiteSpace=wrap;html=1;aspect=fixed;fillColor=#f8cecc;strokeColor=#b85450;" vertex="1" parent="1">
          <mxGeometry x="650" y="425" width="20" height="20" as="geometry" />
        </mxCell>
        <mxCell id="yTmzzn22rcDXvcjyOprt-33" value="3" style="ellipse;whiteSpace=wrap;html=1;aspect=fixed;fillColor=#f8cecc;strokeColor=#b85450;" vertex="1" parent="1">
          <mxGeometry x="330" y="70" width="20" height="20" as="geometry" />
        </mxCell>
        <mxCell id="yTmzzn22rcDXvcjyOprt-37" value="4" style="ellipse;whiteSpace=wrap;html=1;aspect=fixed;fillColor=#f8cecc;strokeColor=#b85450;" vertex="1" parent="1">
          <mxGeometry x="350" y="70" width="20" height="20" as="geometry" />
        </mxCell>
        <mxCell id="yTmzzn22rcDXvcjyOprt-44" value="Categories:&lt;br&gt;&lt;span style=&quot;background-color: initial;&quot;&gt;Input/Processing Root Causes&lt;/span&gt;&lt;br&gt;&lt;ol&gt;&lt;li&gt;Authentication,&lt;/li&gt;&lt;li&gt;authorisation,&lt;/li&gt;&lt;li&gt;verification,&lt;/li&gt;&lt;li&gt;validation,&lt;/li&gt;&lt;li&gt;error/omission&lt;/li&gt;&lt;li&gt;bug&lt;/li&gt;&lt;/ol&gt;&lt;div&gt;Detection Root Causes&amp;nbsp;&lt;/div&gt;(lack of)&lt;ol&gt;&lt;li&gt;audit (monitoring/logging)?&lt;/li&gt;&lt;/ol&gt;&lt;div&gt;&lt;ul&gt;&lt;li&gt;Interception&lt;/li&gt;&lt;li&gt;Replay&lt;/li&gt;&lt;li&gt;Injection&lt;/li&gt;&lt;li&gt;DoS&lt;/li&gt;&lt;li&gt;Masquerading&lt;/li&gt;&lt;li&gt;Error&lt;/li&gt;&lt;/ul&gt;&lt;/div&gt;" style="shape=note;strokeWidth=2;fontSize=14;size=20;whiteSpace=wrap;html=1;fillColor=#fff2cc;strokeColor=#d6b656;fontColor=#666600;align=left;" vertex="1" parent="1">
          <mxGeometry x="550" y="-170" width="340" height="330" as="geometry" />
        </mxCell>
        <mxCell id="yTmzzn22rcDXvcjyOprt-45" value="OWASP API and WebApp Top 10?" style="shape=note;strokeWidth=2;fontSize=14;size=20;whiteSpace=wrap;html=1;fillColor=#fff2cc;strokeColor=#d6b656;fontColor=#666600;" vertex="1" parent="1">
          <mxGeometry x="20" y="-110" width="110.00000000000001" height="80" as="geometry" />
        </mxCell>
        <mxCell id="yTmzzn22rcDXvcjyOprt-46" value="&lt;div style=&quot;text-align: left;&quot;&gt;&lt;ol&gt;&lt;li&gt;&lt;span style=&quot;background-color: initial;&quot;&gt;Prevention,&lt;/span&gt;&lt;/li&gt;&lt;li&gt;&lt;span style=&quot;background-color: initial;&quot;&gt;Mitigation,&lt;/span&gt;&lt;/li&gt;&lt;li&gt;&lt;span style=&quot;background-color: initial;&quot;&gt;Detection,&lt;/span&gt;&lt;/li&gt;&lt;li&gt;&lt;span style=&quot;background-color: initial;&quot;&gt;Recovery&lt;/span&gt;&lt;/li&gt;&lt;/ol&gt;&lt;/div&gt;" style="shape=note;strokeWidth=2;fontSize=14;size=20;whiteSpace=wrap;html=1;fillColor=#fff2cc;strokeColor=#d6b656;fontColor=#666600;" vertex="1" parent="1">
          <mxGeometry x="10" y="80" width="170" height="80" as="geometry" />
        </mxCell>
        <mxCell id="yTmzzn22rcDXvcjyOprt-47" value="CIA?" style="shape=note;strokeWidth=2;fontSize=14;size=20;whiteSpace=wrap;html=1;fillColor=#fff2cc;strokeColor=#d6b656;fontColor=#666600;" vertex="1" parent="1">
          <mxGeometry x="250" y="-170" width="110.00000000000001" height="80" as="geometry" />
        </mxCell>
        <mxCell id="yTmzzn22rcDXvcjyOprt-51" value="5" style="ellipse;whiteSpace=wrap;html=1;aspect=fixed;fillColor=#f8cecc;strokeColor=#b85450;" vertex="1" parent="1">
          <mxGeometry x="370" y="70" width="20" height="20" as="geometry" />
        </mxCell>
        <mxCell id="yTmzzn22rcDXvcjyOprt-52" value="6" style="ellipse;whiteSpace=wrap;html=1;aspect=fixed;fillColor=#f8cecc;strokeColor=#b85450;" vertex="1" parent="1">
          <mxGeometry x="390" y="70" width="20" height="20" as="geometry" />
        </mxCell>
        <mxCell id="yTmzzn22rcDXvcjyOprt-53" value="" style="orthogonalLoop=1;jettySize=auto;html=1;exitX=0.5;exitY=1;exitDx=0;exitDy=0;" edge="1" parent="1" source="yTmzzn22rcDXvcjyOprt-52" target="ET-E_L0radJHumGL9apl-4">
          <mxGeometry relative="1" as="geometry">
            <mxPoint x="370" y="100" as="sourcePoint" />
            <mxPoint x="412" y="301" as="targetPoint" />
          </mxGeometry>
        </mxCell>
        <mxCell id="yTmzzn22rcDXvcjyOprt-54" value="8" style="ellipse;whiteSpace=wrap;html=1;aspect=fixed;fillColor=#f8cecc;strokeColor=#b85450;" vertex="1" parent="1">
          <mxGeometry x="150" y="460" width="20" height="20" as="geometry" />
        </mxCell>
        <mxCell id="yTmzzn22rcDXvcjyOprt-55" value="" style="orthogonalLoop=1;jettySize=auto;html=1;exitX=1;exitY=0.5;exitDx=0;exitDy=0;" edge="1" parent="1" source="yTmzzn22rcDXvcjyOprt-54" target="ET-E_L0radJHumGL9apl-4">
          <mxGeometry relative="1" as="geometry">
            <mxPoint x="91" y="430" as="sourcePoint" />
            <mxPoint x="168" y="680" as="targetPoint" />
          </mxGeometry>
        </mxCell>
        <mxCell id="yTmzzn22rcDXvcjyOprt-57" value="" style="orthogonalLoop=1;jettySize=auto;html=1;exitX=1;exitY=0.5;exitDx=0;exitDy=0;" edge="1" parent="1" source="yTmzzn22rcDXvcjyOprt-54" target="ET-E_L0radJHumGL9apl-10">
          <mxGeometry relative="1" as="geometry">
            <mxPoint x="180" y="480" as="sourcePoint" />
            <mxPoint x="385" y="360" as="targetPoint" />
          </mxGeometry>
        </mxCell>
        <mxCell id="yTmzzn22rcDXvcjyOprt-59" value="7" style="ellipse;whiteSpace=wrap;html=1;aspect=fixed;fillColor=#f8cecc;strokeColor=#b85450;" vertex="1" parent="1">
          <mxGeometry x="130" y="460" width="20" height="20" as="geometry" />
        </mxCell>
        <mxCell id="yTmzzn22rcDXvcjyOprt-63" value="" style="orthogonalLoop=1;jettySize=auto;html=1;exitX=0;exitY=0.5;exitDx=0;exitDy=0;" edge="1" parent="1" source="yTmzzn22rcDXvcjyOprt-30" target="ET-E_L0radJHumGL9apl-4">
          <mxGeometry relative="1" as="geometry">
            <mxPoint x="640" y="430" as="sourcePoint" />
            <mxPoint x="418" y="300" as="targetPoint" />
          </mxGeometry>
        </mxCell>
        <mxCell id="yTmzzn22rcDXvcjyOprt-64" value="" style="orthogonalLoop=1;jettySize=auto;html=1;exitX=0;exitY=0.5;exitDx=0;exitDy=0;" edge="1" parent="1" source="yTmzzn22rcDXvcjyOprt-30" target="ET-E_L0radJHumGL9apl-10">
          <mxGeometry relative="1" as="geometry">
            <mxPoint x="640" y="430" as="sourcePoint" />
            <mxPoint x="428" y="310" as="targetPoint" />
          </mxGeometry>
        </mxCell>
      </root>
    </mxGraphModel>
  </diagram>
</mxfile>
